<svg xmlns="http://www.w3.org/2000/svg" xmlns:xlink="http://www.w3.org/1999/xlink" width="800" zoomAndPan="magnify" viewBox="0 0 600 449.999984" height="600" preserveAspectRatio="xMidYMid meet" version="1.0"><path fill="#ffffff" d="M 375.824219 149.359375 L 367.792969 149.359375 L 367.792969 154.398438 L 375.824219 154.398438 C 377.183594 154.398438 377.695312 155.871094 377.695312 157.226562 L 377.695312 223.707031 C 377.695312 230.496094 372.761719 235.570312 365.976562 235.570312 L 316.730469 235.570312 C 312.65625 235.570312 308.761719 239.332031 308.761719 243.40625 L 308.761719 244.210938 L 298.863281 244.210938 L 298.863281 243.40625 C 298.863281 239.332031 296.179688 235.570312 292.105469 235.570312 L 242.859375 235.570312 C 236.074219 235.570312 229.929688 230.496094 229.929688 223.707031 L 229.929688 157.226562 C 229.929688 155.871094 231.652344 154.398438 233.011719 154.398438 L 239.828125 154.398438 L 239.828125 149.359375 L 233.011719 149.359375 C 228.9375 149.359375 225.070312 153.152344 225.070312 157.226562 L 225.070312 223.707031 C 225.070312 233.210938 233.355469 240.429688 242.859375 240.429688 L 292.105469 240.429688 C 293.464844 240.429688 294.003906 242.050781 294.003906 243.40625 L 294.003906 244.636719 C 294.003906 247.355469 296.777344 249.070312 299.492188 249.070312 L 309.34375 249.070312 C 312.058594 249.070312 313.621094 247.355469 313.621094 244.636719 L 313.621094 243.40625 C 313.621094 242.050781 315.371094 240.429688 316.730469 240.429688 L 365.976562 240.429688 C 375.480469 240.429688 382.550781 233.210938 382.550781 223.707031 L 382.550781 157.226562 C 382.550781 153.152344 379.898438 149.359375 375.824219 149.359375 Z M 375.824219 149.359375 " fill-opacity="1" fill-rule="nonzero"/><path fill="#ffffff" d="M 261.964844 149.359375 L 291.484375 149.359375 L 291.484375 154.398438 L 261.964844 154.398438 Z M 261.964844 160.519531 L 291.484375 160.519531 L 291.484375 165.378906 L 261.964844 165.378906 Z M 261.964844 171.5 L 291.484375 171.5 L 291.484375 176.539062 L 261.964844 176.539062 Z M 316.140625 149.359375 L 345.65625 149.359375 L 345.65625 154.398438 L 316.140625 154.398438 Z M 316.140625 160.519531 L 345.65625 160.519531 L 345.65625 165.378906 L 316.140625 165.378906 Z M 316.140625 171.5 L 345.65625 171.5 L 345.65625 176.539062 L 316.140625 176.539062 Z M 316.140625 171.5 " fill-opacity="1" fill-rule="nonzero"/><path fill="#ffffff" d="M 362.28125 139.640625 L 359.15625 139.640625 L 359.15625 138.757812 C 359.15625 133.328125 355.402344 128.484375 349.96875 128.484375 L 320.421875 128.484375 C 313.578125 128.484375 307.609375 132.234375 304.417969 137.777344 C 301.226562 132.234375 295.253906 128.484375 288.414062 128.484375 L 258.867188 128.484375 C 253.433594 128.484375 248.46875 133.328125 248.46875 138.757812 L 248.46875 139.640625 L 246.554688 139.640625 C 241.800781 139.640625 237.308594 144.410156 237.308594 149.839844 L 237.308594 216.320312 C 237.308594 223.109375 243.183594 228.191406 249.632812 228.191406 L 294.570312 228.191406 C 298.640625 228.191406 301.957031 231.792969 301.957031 235.570312 L 306.878906 235.570312 C 306.878906 231.792969 310.195312 228.191406 314.265625 228.191406 L 359.203125 228.191406 C 365.652344 228.191406 370.3125 223.109375 370.3125 216.320312 L 370.3125 149.839844 C 370.3125 144.410156 367.03125 139.640625 362.28125 139.640625 Z M 320.421875 133.34375 L 349.96875 133.34375 C 352.6875 133.34375 354.296875 136.042969 354.296875 138.757812 L 354.296875 208.933594 C 354.296875 211.652344 352.6875 213.433594 349.96875 213.433594 L 320.421875 213.433594 C 315.070312 213.433594 310.019531 216.164062 306.242188 219.8125 L 306.242188 147.378906 C 306.242188 139.910156 312.957031 133.34375 320.421875 133.34375 Z M 253.328125 138.757812 C 253.328125 136.042969 256.148438 133.34375 258.867188 133.34375 L 288.414062 133.34375 C 295.878906 133.34375 301.382812 139.910156 301.382812 147.378906 L 301.382812 219.785156 C 298.863281 216.140625 293.757812 213.433594 288.414062 213.433594 L 258.867188 213.433594 C 256.148438 213.433594 253.328125 211.652344 253.328125 208.933594 Z M 249.632812 223.332031 C 245.898438 223.332031 242.167969 220.394531 242.167969 216.320312 L 242.167969 149.839844 C 242.167969 147.171875 244.550781 144.5 246.554688 144.5 L 248.46875 144.5 L 248.46875 208.933594 C 248.46875 214.367188 253.433594 218.292969 258.867188 218.292969 L 288.414062 218.292969 C 293.113281 218.292969 297.257812 220.757812 299.6875 224.402344 C 298.125 223.6875 296.394531 223.332031 294.570312 223.332031 Z M 365.273438 216.320312 C 365.273438 220.394531 362.9375 223.332031 359.203125 223.332031 L 314.265625 223.332031 C 312.441406 223.332031 310.710938 223.6875 309.148438 224.402344 C 311.578125 220.757812 315.722656 218.292969 320.421875 218.292969 L 349.96875 218.292969 C 355.402344 218.292969 359.15625 214.367188 359.15625 208.933594 L 359.15625 144.5 L 362.28125 144.5 C 364.28125 144.5 365.273438 147.171875 365.273438 149.839844 Z M 365.273438 216.320312 " fill-opacity="1" fill-rule="nonzero"/><path fill="#ffffff" d="M 291.484375 194.953125 C 291.484375 196.3125 290.378906 197.414062 289.019531 197.414062 L 264.429688 197.414062 C 263.070312 197.414062 261.964844 196.3125 261.964844 194.953125 L 261.964844 185.121094 C 261.964844 183.757812 263.070312 182.65625 264.429688 182.65625 L 289.019531 182.65625 C 290.378906 182.65625 291.484375 183.757812 291.484375 185.121094 Z M 345.65625 194.953125 C 345.65625 196.3125 344.554688 197.414062 343.195312 197.414062 L 318.601562 197.414062 C 317.242188 197.414062 316.140625 196.3125 316.140625 194.953125 L 316.140625 185.121094 C 316.140625 183.757812 317.242188 182.65625 318.601562 182.65625 L 343.195312 182.65625 C 344.554688 182.65625 345.65625 183.757812 345.65625 185.121094 Z M 345.65625 194.953125 " fill-opacity="1" fill-rule="nonzero"/></svg>