<svg xmlns="http://www.w3.org/2000/svg" xmlns:xlink="http://www.w3.org/1999/xlink" width="500" zoomAndPan="magnify" viewBox="0 0 375 374.999991" height="500" preserveAspectRatio="xMidYMid meet" version="1.0"><defs><g/></defs><path fill="#6aeb60" d="M 270.363281 122.933594 L 261.0625 122.933594 L 261.0625 128.769531 L 270.363281 128.769531 C 271.9375 128.769531 272.53125 130.472656 272.53125 132.042969 L 272.53125 209.050781 C 272.53125 216.914062 266.820312 222.792969 258.957031 222.792969 L 201.914062 222.792969 C 197.195312 222.792969 192.683594 227.148438 192.683594 231.867188 L 192.683594 232.800781 L 181.21875 232.800781 L 181.21875 231.867188 C 181.21875 227.148438 178.109375 222.792969 173.390625 222.792969 L 116.347656 222.792969 C 108.484375 222.792969 101.371094 216.914062 101.371094 209.050781 L 101.371094 132.042969 C 101.371094 130.472656 103.367188 128.769531 104.941406 128.769531 L 112.835938 128.769531 L 112.835938 122.933594 L 104.941406 122.933594 C 100.222656 122.933594 95.742188 127.324219 95.742188 132.042969 L 95.742188 209.050781 C 95.742188 220.058594 105.339844 228.421875 116.347656 228.421875 L 173.390625 228.421875 C 174.964844 228.421875 175.589844 230.296875 175.589844 231.867188 L 175.589844 233.292969 C 175.589844 236.441406 178.800781 238.429688 181.949219 238.429688 L 193.355469 238.429688 C 196.503906 238.429688 198.3125 236.441406 198.3125 233.292969 L 198.3125 231.867188 C 198.3125 230.296875 200.339844 228.421875 201.914062 228.421875 L 258.957031 228.421875 C 269.964844 228.421875 278.160156 220.058594 278.160156 209.050781 L 278.160156 132.042969 C 278.160156 127.324219 275.082031 122.933594 270.363281 122.933594 Z M 270.363281 122.933594 " fill-opacity="1" fill-rule="nonzero"/><path fill="#6aeb60" d="M 138.480469 122.933594 L 172.667969 122.933594 L 172.667969 128.769531 L 138.480469 128.769531 Z M 138.480469 135.859375 L 172.667969 135.859375 L 172.667969 141.488281 L 138.480469 141.488281 Z M 138.480469 148.574219 L 172.667969 148.574219 L 172.667969 154.414062 L 138.480469 154.414062 Z M 201.230469 122.933594 L 235.421875 122.933594 L 235.421875 128.769531 L 201.230469 128.769531 Z M 201.230469 135.859375 L 235.421875 135.859375 L 235.421875 141.488281 L 201.230469 141.488281 Z M 201.230469 148.574219 L 235.421875 148.574219 L 235.421875 154.414062 L 201.230469 154.414062 Z M 201.230469 148.574219 " fill-opacity="1" fill-rule="nonzero"/><path fill="#e0e0e0" d="M 254.679688 111.675781 L 251.058594 111.675781 L 251.058594 110.652344 C 251.058594 104.363281 246.707031 98.75 240.417969 98.75 L 206.191406 98.75 C 198.265625 98.75 191.347656 103.09375 187.652344 109.511719 C 183.957031 103.09375 177.039062 98.75 169.113281 98.75 L 134.886719 98.75 C 128.597656 98.75 122.84375 104.363281 122.84375 110.652344 L 122.84375 111.675781 L 120.628906 111.675781 C 115.125 111.675781 109.917969 117.195312 109.917969 123.488281 L 109.917969 200.496094 C 109.917969 208.359375 116.722656 214.246094 124.191406 214.246094 L 176.242188 214.246094 C 180.960938 214.246094 184.800781 218.414062 184.800781 222.792969 L 190.503906 222.792969 C 190.503906 218.414062 194.34375 214.246094 199.0625 214.246094 L 251.113281 214.246094 C 258.582031 214.246094 263.984375 208.359375 263.984375 200.496094 L 263.984375 123.488281 C 263.980469 117.195312 260.183594 111.675781 254.679688 111.675781 Z M 206.191406 104.378906 L 240.417969 104.378906 C 243.5625 104.378906 245.429688 107.507812 245.429688 110.652344 L 245.429688 191.9375 C 245.429688 195.085938 243.5625 197.148438 240.417969 197.148438 L 206.191406 197.148438 C 199.992188 197.148438 194.144531 200.3125 189.765625 204.539062 L 189.765625 120.632812 C 189.765625 111.984375 197.542969 104.378906 206.191406 104.378906 Z M 128.472656 110.652344 C 128.472656 107.507812 131.742188 104.378906 134.886719 104.378906 L 169.113281 104.378906 C 177.761719 104.378906 184.136719 111.984375 184.136719 120.632812 L 184.136719 204.503906 C 181.21875 200.289062 175.304688 197.148438 169.113281 197.148438 L 134.886719 197.148438 C 131.742188 197.148438 128.472656 195.085938 128.472656 191.9375 Z M 124.191406 208.617188 C 119.867188 208.617188 115.546875 205.214844 115.546875 200.496094 L 115.546875 123.488281 C 115.546875 120.394531 118.308594 117.304688 120.625 117.304688 L 122.84375 117.304688 L 122.84375 191.9375 C 122.84375 198.230469 128.597656 202.777344 134.886719 202.777344 L 169.113281 202.777344 C 174.558594 202.777344 179.359375 205.632812 182.171875 209.855469 C 180.363281 209.027344 178.359375 208.617188 176.242188 208.617188 Z M 258.144531 200.496094 C 258.144531 205.214844 255.4375 208.617188 251.113281 208.617188 L 199.0625 208.617188 C 196.945312 208.617188 194.941406 209.027344 193.132812 209.855469 C 195.945312 205.632812 200.746094 202.777344 206.191406 202.777344 L 240.417969 202.777344 C 246.707031 202.777344 251.054688 198.230469 251.054688 191.9375 L 251.054688 117.304688 L 254.679688 117.304688 C 256.996094 117.304688 258.144531 120.394531 258.144531 123.488281 Z M 258.144531 200.496094 " fill-opacity="1" fill-rule="nonzero"/><path fill="#e0e0e0" d="M 172.667969 175.742188 C 172.667969 177.320312 171.394531 178.597656 169.816406 178.597656 L 141.332031 178.597656 C 139.757812 178.597656 138.480469 177.320312 138.480469 175.742188 L 138.480469 164.351562 C 138.480469 162.777344 139.757812 161.5 141.332031 161.5 L 169.816406 161.5 C 171.394531 161.5 172.667969 162.777344 172.667969 164.351562 Z M 235.421875 175.742188 C 235.421875 177.320312 234.144531 178.597656 232.570312 178.597656 L 204.082031 178.597656 C 202.507812 178.597656 201.230469 177.320312 201.230469 175.742188 L 201.230469 164.351562 C 201.230469 162.777344 202.507812 161.5 204.082031 161.5 L 232.570312 161.5 C 234.144531 161.5 235.421875 162.777344 235.421875 164.351562 Z M 235.421875 175.742188 " fill-opacity="1" fill-rule="nonzero"/><g fill="#5ecb55" fill-opacity="1"><g transform="translate(103.470263, 251.931003)"><g><path d="M 10.0625 -1.953125 L 4.65625 -2.953125 L 2.484375 0.453125 L 0.609375 0.109375 L 9.453125 -13.390625 L 9.578125 -13.375 L 13.03125 2.390625 L 10.84375 2 Z M 9.734375 -3.71875 L 8.671875 -9.234375 L 5.65625 -4.46875 Z M 9.734375 -3.71875 "/></g></g></g><g fill="#5ecb55" fill-opacity="1"><g transform="translate(121.279809, 255.102132)"><g><path d="M 5.9375 -13.59375 L 4.1875 -1.28125 L 11.40625 -0.265625 L 11.140625 1.578125 L 2.046875 0.296875 L 4.0625 -13.859375 Z M 5.9375 -13.59375 "/></g></g></g><g fill="#5ecb55" fill-opacity="1"><g transform="translate(137.650588, 257.351057)"><g><path d="M 12.734375 -13.0625 L 12.546875 -11.234375 L 5.21875 -11.984375 L 4.78125 -7.65625 L 11.34375 -6.984375 L 11.15625 -5.15625 L 4.59375 -5.828125 L 4.140625 -1.4375 L 11.75 -0.65625 L 11.5625 1.1875 L 2.046875 0.203125 L 3.5 -14.015625 Z M 12.734375 -13.0625 "/></g></g></g><g fill="#5ecb55" fill-opacity="1"><g transform="translate(154.712199, 259.009204)"><g><path d="M 10.140625 0.625 L 6.765625 -5.3125 L 3.046875 0.1875 L 0.671875 0.046875 L 5.8125 -7.03125 L 1.75 -14.21875 L 4.171875 -14.0625 L 7.375 -8.390625 L 10.953125 -13.65625 L 13.265625 -13.515625 L 8.3125 -6.734375 L 12.578125 0.765625 Z M 10.140625 0.625 "/></g></g></g><g fill="#5ecb55" fill-opacity="1"><g transform="translate(172.226396, 259.995126)"><g><path d="M 9.625 -3.5625 L 4.125 -3.671875 L 2.53125 0.046875 L 0.625 0.015625 L 7.15625 -14.765625 L 7.28125 -14.75 L 13.25 0.25 L 11.03125 0.203125 Z M 9 -5.25 L 7.0625 -10.515625 L 4.859375 -5.328125 Z M 9 -5.25 "/></g></g></g><g fill="#5ecb55" fill-opacity="1"><g transform="translate(190.336252, 260.274683)"><g><path d="M 14.140625 -14.6875 L 14.53125 0.078125 L 14.46875 0.078125 L 3.6875 -10.28125 L 4 -0.109375 L 2.0625 -0.0625 L 1.671875 -14.78125 L 1.765625 -14.78125 L 12.515625 -4.296875 L 12.21875 -14.625 Z M 14.140625 -14.6875 "/></g></g></g><g fill="#5ecb55" fill-opacity="1"><g transform="translate(211.148364, 259.60067)"><g><path d="M 1.015625 -14.421875 L 4.90625 -14.703125 C 6.675781 -14.835938 8.171875 -14.59375 9.390625 -13.96875 C 10.609375 -13.34375 11.519531 -12.492188 12.125 -11.421875 C 12.738281 -10.347656 13.09375 -9.203125 13.1875 -7.984375 C 13.289062 -6.597656 13.054688 -5.347656 12.484375 -4.234375 C 11.921875 -3.128906 11.125 -2.25 10.09375 -1.59375 C 9.0625 -0.945312 7.910156 -0.578125 6.640625 -0.484375 L 2.0625 -0.15625 Z M 6.125 -2.328125 C 7.175781 -2.398438 8.097656 -2.671875 8.890625 -3.140625 C 9.691406 -3.617188 10.296875 -4.265625 10.703125 -5.078125 C 11.117188 -5.898438 11.289062 -6.859375 11.21875 -7.953125 C 11.132812 -9.066406 10.816406 -10.003906 10.265625 -10.765625 C 9.710938 -11.535156 9.015625 -12.097656 8.171875 -12.453125 C 7.335938 -12.816406 6.457031 -12.960938 5.53125 -12.890625 L 3.03125 -12.71875 L 3.8125 -2.15625 Z M 6.125 -2.328125 "/></g></g></g><g fill="#5ecb55" fill-opacity="1"><g transform="translate(230.233851, 258.083087)"><g><path d="M 9.859375 -1.15625 L 5.90625 -6.015625 C 5.800781 -5.984375 5.644531 -5.953125 5.4375 -5.921875 L 3.328125 -5.671875 L 3.9375 -0.453125 L 2.046875 -0.234375 L 0.390625 -14.4375 L 4.171875 -14.890625 C 5.140625 -14.992188 6.019531 -14.921875 6.8125 -14.671875 C 7.613281 -14.421875 8.269531 -13.988281 8.78125 -13.375 C 9.289062 -12.757812 9.601562 -11.988281 9.71875 -11.0625 C 9.820312 -10.175781 9.722656 -9.347656 9.421875 -8.578125 C 9.117188 -7.804688 8.585938 -7.1875 7.828125 -6.71875 L 12.078125 -1.40625 Z M 5.171875 -7.765625 C 6.203125 -7.878906 6.910156 -8.234375 7.296875 -8.828125 C 7.679688 -9.421875 7.832031 -10.066406 7.75 -10.765625 C 7.707031 -11.179688 7.566406 -11.578125 7.328125 -11.953125 C 7.085938 -12.335938 6.742188 -12.640625 6.296875 -12.859375 C 5.859375 -13.085938 5.320312 -13.164062 4.6875 -13.09375 L 2.484375 -12.828125 L 3.109375 -7.515625 Z M 5.171875 -7.765625 "/></g></g></g><g fill="#5ecb55" fill-opacity="1"><g transform="translate(247.346383, 255.957237)"><g><path d="M 1.8125 -14.734375 L 3.921875 -0.59375 L 2.046875 -0.3125 L -0.0625 -14.453125 Z M 1.8125 -14.734375 "/></g></g></g><g fill="#5ecb55" fill-opacity="1"><g transform="translate(257.468797, 254.436456)"><g><path d="M 8.71875 -5.421875 L 3.3125 -4.421875 L 2.484375 -0.453125 L 0.609375 -0.109375 L 4.078125 -15.890625 L 4.203125 -15.90625 L 13.03125 -2.390625 L 10.84375 -2 Z M 7.765625 -6.9375 L 4.828125 -11.703125 L 3.6875 -6.1875 Z M 7.765625 -6.9375 "/></g></g></g></svg>