<svg xmlns="http://www.w3.org/2000/svg" xmlns:xlink="http://www.w3.org/1999/xlink" width="500" zoomAndPan="magnify" viewBox="0 0 375 374.999991" height="500" preserveAspectRatio="xMidYMid meet" version="1.0"><defs><g/></defs><path fill="#71d168" d="M 336.761719 71.773438 L 320.03125 71.773438 L 320.03125 82.273438 L 336.761719 82.273438 C 339.585938 82.273438 340.652344 85.332031 340.652344 88.160156 L 340.652344 226.664062 C 340.652344 240.808594 330.382812 251.378906 316.242188 251.378906 L 213.644531 251.378906 C 205.160156 251.378906 197.042969 259.21875 197.042969 267.703125 L 197.042969 269.378906 L 176.421875 269.378906 L 176.421875 267.703125 C 176.421875 259.21875 170.832031 251.378906 162.347656 251.378906 L 59.75 251.378906 C 45.609375 251.378906 32.8125 240.808594 32.8125 226.664062 L 32.8125 88.160156 C 32.8125 85.332031 36.40625 82.273438 39.234375 82.273438 L 53.4375 82.273438 L 53.4375 71.773438 L 39.234375 71.773438 C 30.746094 71.773438 22.6875 79.675781 22.6875 88.160156 L 22.6875 226.664062 C 22.6875 246.464844 39.953125 261.503906 59.75 261.503906 L 162.347656 261.503906 C 165.175781 261.503906 166.296875 264.875 166.296875 267.703125 L 166.296875 270.269531 C 166.296875 275.925781 172.078125 279.5 177.738281 279.5 L 198.257812 279.5 C 203.914062 279.5 207.167969 275.925781 207.167969 270.269531 L 207.167969 267.703125 C 207.167969 264.875 210.816406 261.503906 213.644531 261.503906 L 316.242188 261.503906 C 336.042969 261.503906 350.777344 246.464844 350.777344 226.664062 L 350.777344 88.160156 C 350.777344 79.675781 345.246094 71.773438 336.761719 71.773438 Z M 336.761719 71.773438 " fill-opacity="1" fill-rule="nonzero"/><path fill="#71d168" d="M 99.554688 71.773438 L 161.046875 71.773438 L 161.046875 82.273438 L 99.554688 82.273438 Z M 99.554688 95.023438 L 161.046875 95.023438 L 161.046875 105.144531 L 99.554688 105.144531 Z M 99.554688 117.894531 L 161.046875 117.894531 L 161.046875 128.394531 L 99.554688 128.394531 Z M 212.417969 71.773438 L 273.910156 71.773438 L 273.910156 82.273438 L 212.417969 82.273438 Z M 212.417969 95.023438 L 273.910156 95.023438 L 273.910156 105.144531 L 212.417969 105.144531 Z M 212.417969 117.894531 L 273.910156 117.894531 L 273.910156 128.394531 L 212.417969 128.394531 Z M 212.417969 117.894531 " fill-opacity="1" fill-rule="nonzero"/><path fill="#545454" d="M 308.546875 51.527344 L 302.03125 51.527344 L 302.03125 49.6875 C 302.03125 38.375 294.210938 28.28125 282.898438 28.28125 L 221.339844 28.28125 C 207.085938 28.28125 194.644531 36.089844 187.996094 47.640625 C 181.351562 36.089844 168.910156 28.28125 154.652344 28.28125 L 93.09375 28.28125 C 81.78125 28.28125 71.433594 38.375 71.433594 49.6875 L 71.433594 51.527344 L 67.445312 51.527344 C 57.546875 51.527344 48.1875 61.457031 48.1875 72.773438 L 48.1875 211.277344 C 48.1875 225.417969 60.421875 236.007812 73.859375 236.007812 L 167.476562 236.007812 C 175.964844 236.007812 182.867188 243.503906 182.867188 251.378906 L 193.125 251.378906 C 193.125 243.503906 200.03125 236.007812 208.515625 236.007812 L 302.132812 236.007812 C 315.570312 236.007812 325.28125 225.417969 325.28125 211.277344 L 325.28125 72.773438 C 325.28125 61.457031 318.445312 51.527344 308.546875 51.527344 Z M 221.339844 38.402344 L 282.898438 38.402344 C 288.554688 38.402344 291.910156 44.03125 291.910156 49.6875 L 291.910156 195.886719 C 291.910156 201.542969 288.554688 205.261719 282.898438 205.261719 L 221.339844 205.261719 C 210.1875 205.261719 199.667969 210.945312 191.796875 218.550781 L 191.796875 67.640625 C 191.796875 52.085938 205.78125 38.402344 221.339844 38.402344 Z M 81.558594 49.6875 C 81.558594 44.03125 87.4375 38.402344 93.09375 38.402344 L 154.652344 38.402344 C 170.210938 38.402344 181.671875 52.085938 181.671875 67.640625 L 181.671875 218.488281 C 176.421875 210.902344 165.789062 205.261719 154.652344 205.261719 L 93.09375 205.261719 C 87.4375 205.261719 81.558594 201.546875 81.558594 195.886719 Z M 73.859375 225.882812 C 66.082031 225.882812 58.308594 219.761719 58.308594 211.277344 L 58.308594 72.773438 C 58.308594 67.210938 63.277344 61.652344 67.445312 61.652344 L 71.433594 61.652344 L 71.433594 195.886719 C 71.433594 207.199219 81.78125 215.382812 93.09375 215.382812 L 154.652344 215.382812 C 164.441406 215.382812 173.078125 220.519531 178.136719 228.113281 C 174.886719 226.617188 171.285156 225.882812 167.476562 225.882812 Z M 314.78125 211.277344 C 314.78125 219.761719 309.910156 225.882812 302.132812 225.882812 L 208.515625 225.882812 C 204.707031 225.882812 201.105469 226.621094 197.851562 228.113281 C 202.914062 220.519531 211.550781 215.382812 221.339844 215.382812 L 282.898438 215.382812 C 294.210938 215.382812 302.03125 207.199219 302.03125 195.886719 L 302.03125 61.652344 L 308.546875 61.652344 C 312.714844 61.652344 314.78125 67.210938 314.78125 72.773438 Z M 314.78125 211.277344 " fill-opacity="1" fill-rule="nonzero"/><path fill="#d9d9d9" d="M 161.046875 166.757812 C 161.046875 169.59375 158.753906 171.890625 155.917969 171.890625 L 104.683594 171.890625 C 101.851562 171.890625 99.554688 169.59375 99.554688 166.757812 L 99.554688 146.273438 C 99.554688 143.4375 101.851562 141.140625 104.683594 141.140625 L 155.917969 141.140625 C 158.753906 141.140625 161.046875 143.4375 161.046875 146.273438 Z M 273.910156 166.757812 C 273.910156 169.59375 271.613281 171.890625 268.78125 171.890625 L 217.546875 171.890625 C 214.714844 171.890625 212.417969 169.59375 212.417969 166.757812 L 212.417969 146.273438 C 212.417969 143.4375 214.714844 141.140625 217.546875 141.140625 L 268.78125 141.140625 C 271.613281 141.140625 273.910156 143.4375 273.910156 146.273438 Z M 273.910156 166.757812 " fill-opacity="1" fill-rule="nonzero"/><g fill="#5ecb55" fill-opacity="1"><g transform="translate(18.02776, 317.490215)"><g><path d="M 20.3125 -3.96875 L 9.40625 -5.96875 L 5.03125 0.921875 L 1.265625 0.234375 L 19.0625 -27 L 19.296875 -26.96875 L 26.265625 4.828125 L 21.875 4.015625 Z M 19.609375 -7.484375 L 17.46875 -18.578125 L 11.375 -9 Z M 19.609375 -7.484375 "/></g></g></g><g fill="#5ecb55" fill-opacity="1"><g transform="translate(53.946284, 323.885791)"><g><path d="M 12 -27.40625 L 8.46875 -2.59375 L 23 -0.53125 L 22.46875 3.1875 L 4.09375 0.578125 L 8.15625 -27.953125 Z M 12 -27.40625 "/></g></g></g><g fill="#5ecb55" fill-opacity="1"><g transform="translate(86.963076, 328.421404)"><g><path d="M 25.671875 -26.328125 L 25.296875 -22.65625 L 10.515625 -24.171875 L 9.625 -15.453125 L 22.828125 -14.109375 L 22.453125 -10.421875 L 9.25 -11.765625 L 8.34375 -2.921875 L 23.6875 -1.359375 L 23.3125 2.375 L 4.125 0.421875 L 7.046875 -28.234375 Z M 25.671875 -26.328125 "/></g></g></g><g fill="#5ecb55" fill-opacity="1"><g transform="translate(121.373149, 331.765599)"><g><path d="M 20.453125 1.25 L 13.671875 -10.703125 L 6.125 0.375 L 1.359375 0.078125 L 11.734375 -14.1875 L 3.5 -28.65625 L 8.390625 -28.359375 L 14.875 -16.9375 L 22.09375 -27.53125 L 26.734375 -27.234375 L 16.765625 -13.59375 L 25.390625 1.546875 Z M 20.453125 1.25 "/></g></g></g><g fill="#5ecb55" fill-opacity="1"><g transform="translate(156.695994, 333.754037)"><g><path d="M 19.390625 -7.203125 L 8.3125 -7.421875 L 5.109375 0.09375 L 1.28125 0.03125 L 14.453125 -29.75 L 14.6875 -29.75 L 26.703125 0.515625 L 22.234375 0.421875 Z M 18.140625 -10.578125 L 14.234375 -21.171875 L 9.765625 -10.734375 Z M 18.140625 -10.578125 "/></g></g></g><g fill="#5ecb55" fill-opacity="1"><g transform="translate(193.220184, 334.317818)"><g><path d="M 28.46875 -29.578125 L 29.265625 0.171875 L 29.15625 0.171875 L 7.421875 -20.75 L 8.046875 -0.21875 L 4.140625 -0.109375 L 3.34375 -29.78125 L 3.546875 -29.78125 L 25.234375 -8.640625 L 24.609375 -29.46875 Z M 28.46875 -29.578125 "/></g></g></g><g fill="#5ecb55" fill-opacity="1"><g transform="translate(235.194336, 332.958473)"><g><path d="M 2 -29.03125 L 9.875 -29.625 C 13.457031 -29.882812 16.472656 -29.390625 18.921875 -28.140625 C 21.378906 -26.898438 23.222656 -25.195312 24.453125 -23.03125 C 25.691406 -20.875 26.40625 -18.554688 26.59375 -16.078125 C 26.789062 -13.285156 26.320312 -10.773438 25.1875 -8.546875 C 24.050781 -6.316406 22.4375 -4.546875 20.34375 -3.234375 C 18.257812 -1.921875 15.945312 -1.171875 13.40625 -0.984375 L 4.125 -0.296875 Z M 12.359375 -4.671875 C 14.472656 -4.828125 16.335938 -5.382812 17.953125 -6.34375 C 19.566406 -7.300781 20.785156 -8.609375 21.609375 -10.265625 C 22.429688 -11.929688 22.765625 -13.863281 22.609375 -16.0625 C 22.441406 -18.3125 21.804688 -20.207031 20.703125 -21.75 C 19.597656 -23.289062 18.195312 -24.421875 16.5 -25.140625 C 14.8125 -25.859375 13.03125 -26.144531 11.15625 -26 L 6.15625 -25.640625 L 7.71875 -4.328125 Z M 12.359375 -4.671875 "/></g></g></g><g fill="#5ecb55" fill-opacity="1"><g transform="translate(273.686192, 329.897812)"><g><path d="M 19.875 -2.328125 L 11.90625 -12.09375 C 11.695312 -12.050781 11.382812 -12.003906 10.96875 -11.953125 L 6.734375 -11.46875 L 7.96875 -0.9375 L 4.109375 -0.484375 L 0.765625 -29.109375 L 8.421875 -30 C 10.367188 -30.226562 12.144531 -30.085938 13.75 -29.578125 C 15.363281 -29.066406 16.679688 -28.195312 17.703125 -26.96875 C 18.734375 -25.738281 19.359375 -24.1875 19.578125 -22.3125 C 19.785156 -20.550781 19.582031 -18.878906 18.96875 -17.296875 C 18.363281 -15.722656 17.3125 -14.460938 15.8125 -13.515625 L 24.34375 -2.84375 Z M 10.453125 -15.671875 C 12.503906 -15.910156 13.921875 -16.625 14.703125 -17.8125 C 15.492188 -19 15.804688 -20.289062 15.640625 -21.6875 C 15.546875 -22.53125 15.257812 -23.34375 14.78125 -24.125 C 14.300781 -24.90625 13.613281 -25.515625 12.71875 -25.953125 C 11.820312 -26.390625 10.738281 -26.535156 9.46875 -26.390625 L 5.046875 -25.875 L 6.296875 -15.1875 Z M 10.453125 -15.671875 "/></g></g></g><g fill="#5ecb55" fill-opacity="1"><g transform="translate(308.198935, 325.610393)"><g><path d="M 3.65625 -29.6875 L 7.921875 -1.1875 L 4.09375 -0.609375 L -0.171875 -29.109375 Z M 3.65625 -29.6875 "/></g></g></g><g fill="#5ecb55" fill-opacity="1"><g transform="translate(328.613997, 322.543252)"><g><path d="M 17.5625 -10.9375 L 6.65625 -8.9375 L 5.03125 -0.921875 L 1.265625 -0.234375 L 8.21875 -32.03125 L 8.453125 -32.0625 L 26.265625 -4.828125 L 21.875 -4.015625 Z M 15.671875 -13.984375 L 9.71875 -23.578125 L 7.4375 -12.46875 Z M 15.671875 -13.984375 "/></g></g></g></svg>